<svg width="28" height="28" viewBox="0 0 28 28" fill="none" xmlns="http://www.w3.org/2000/svg">
<path d="M26 9.3335C26 10.9904 24.6569 12.3335 23 12.3335C21.3431 12.3335 20 10.9904 20 9.3335C20 7.67664 21.3431 6.3335 23 6.3335C24.6569 6.3335 26 7.67664 26 9.3335Z" fill="url(#paint0_linear)"/>
<path d="M18 17.2242C18 14.4628 20.2386 12.2242 23 12.2242C25.7614 12.2242 28 14.4628 28 17.2242V20.2242C28 20.7765 27.5523 21.2242 27 21.2242H19C18.4477 21.2242 18 20.7765 18 20.2242V17.2242Z" fill="url(#paint1_linear)"/>
<path d="M8 9.3335C8 10.9904 6.65685 12.3335 5 12.3335C3.34314 12.3335 2 10.9904 2 9.3335C2 7.67664 3.34314 6.3335 5 6.3335C6.65685 6.3335 8 7.67664 8 9.3335Z" fill="url(#paint2_linear)"/>
<path d="M0 17.2242C0 14.4628 2.23858 12.2242 5 12.2242C7.76142 12.2242 10 14.4628 10 17.2242V20.2242C10 20.7765 9.55228 21.2242 9 21.2242H1C0.447715 21.2242 0 20.7765 0 20.2242V17.2242Z" fill="url(#paint3_linear)"/>
<path d="M19 6C19 8.76142 16.7614 11 14 11C11.2386 11 9 8.76142 9 6C9 3.23858 11.2386 1 14 1C16.7614 1 19 3.23858 19 6Z" fill="url(#paint4_linear)"/>
<path d="M19 6C19 8.76142 16.7614 11 14 11C11.2386 11 9 8.76142 9 6C9 3.23858 11.2386 1 14 1C16.7614 1 19 3.23858 19 6Z" fill="url(#paint5_linear)"/>
<path fill-rule="evenodd" clip-rule="evenodd" d="M13.4667 12C9.34294 12 6 15.5519 6 19.9333V23.8667C6 24.4926 6.47756 25 7.06667 25H20.9333C21.5224 25 22 24.4926 22 23.8667V19.9333C22 15.5519 18.6571 12 14.5333 12H13.4667Z" fill="url(#paint6_linear)"/>
<defs>
<linearGradient id="paint0_linear" x1="23" y1="6.3335" x2="23" y2="21.2242" gradientUnits="userSpaceOnUse">
<stop stop-color="#9CCAFF"/>
<stop offset="1" stop-color="#92B4FF"/>
</linearGradient>
<linearGradient id="paint1_linear" x1="23" y1="6.3335" x2="23" y2="21.2242" gradientUnits="userSpaceOnUse">
<stop stop-color="#9CCAFF"/>
<stop offset="1" stop-color="#92B4FF"/>
</linearGradient>
<linearGradient id="paint2_linear" x1="5" y1="6.3335" x2="5" y2="21.2242" gradientUnits="userSpaceOnUse">
<stop stop-color="#9CCAFF"/>
<stop offset="1" stop-color="#92B4FF"/>
</linearGradient>
<linearGradient id="paint3_linear" x1="5" y1="6.3335" x2="5" y2="21.2242" gradientUnits="userSpaceOnUse">
<stop stop-color="#9CCAFF"/>
<stop offset="1" stop-color="#92B4FF"/>
</linearGradient>
<linearGradient id="paint4_linear" x1="9" y1="2.94352" x2="13.6019" y2="9.92895" gradientUnits="userSpaceOnUse">
<stop stop-color="#0A9DEF"/>
<stop offset="1" stop-color="#2565F4"/>
</linearGradient>
<linearGradient id="paint5_linear" x1="9" y1="2.94352" x2="13.6019" y2="9.92895" gradientUnits="userSpaceOnUse">
<stop stop-color="#0A9DEF"/>
<stop offset="1" stop-color="#2565F4"/>
</linearGradient>
<linearGradient id="paint6_linear" x1="6" y1="15.304" x2="14" y2="26.7333" gradientUnits="userSpaceOnUse">
<stop stop-color="#0A9DEF"/>
<stop offset="1" stop-color="#2565F4"/>
</linearGradient>
</defs>
</svg>
